<svg aria-hidden="true" style="position: absolute; width: 0; height: 0; overflow: hidden;" version="1.1" xmlns="http://www.w3.org/2000/svg" xmlns:xlink="http://www.w3.org/1999/xlink">
<defs>
<symbol id="icon-logo-desktop" viewBox="0 0 38 32">
<path d="M21.776 9.642l-0.717-0.571c-0.092-0.079-0.213-0.127-0.345-0.127-0.171 0-0.323 0.081-0.42 0.206l-0.001 0.001-9.915 11.898 0.153 0.177 2.456-2.366c-0.084-0.036-0.15-0.099-0.19-0.177l-0.001-0.002c-0.028-0.054-0.045-0.119-0.045-0.187 0-0.028 0.003-0.055 0.008-0.081l-0 0.003c0.018-0.090 0.065-0.171 0.134-0.229 0.063-0.054 0.146-0.087 0.237-0.087 0.002 0 0.004 0 0.006 0h-0c0.080 0 0.157 0.027 0.221 0.076s0.11 0.117 0.134 0.196l0.001 0.003 3.238-3.137c0.047-0.040 0.108-0.064 0.175-0.064s0.128 0.024 0.176 0.064l-0-0 0.164 0.126c0.044 0.033 0.099 0.053 0.159 0.053 0.083 0 0.158-0.038 0.206-0.099l0-0.001 4.233-4.96c0.078-0.087 0.125-0.202 0.125-0.328 0-0.087-0.022-0.168-0.062-0.239l0.001 0.003c-0.033-0.059-0.077-0.109-0.129-0.148l-0.001-0.001z"></path>
<path d="M26.435 12.991c-2.041 1.536-4.433 2.741-7.022 3.477l-0.153 0.037c-2.298 0.638-4.968 1.072-7.717 1.208l-0.088 0.003c0.053 0.406 0.149 0.805 0.285 1.189 1.488 1.406 12.688-0.994 14.876-3.772 0.465-0.577-0.181-2.143-0.181-2.143zM13.134 18.859c-0.077-0-0.149-0.025-0.207-0.066l0.001 0.001c-0.061-0.043-0.108-0.103-0.136-0.172l-0.001-0.003c-0.018-0.044-0.028-0.094-0.028-0.147 0-0.107 0.041-0.204 0.108-0.276l-0 0c0.066-0.070 0.159-0.114 0.262-0.114 0.052 0 0.101 0.011 0.146 0.031l-0.002-0.001c0.067 0.029 0.126 0.078 0.166 0.143 0.041 0.063 0.063 0.138 0.063 0.215 0 0.001 0 0.003 0 0.004 0 0.105-0.041 0.201-0.108 0.272l0-0c-0.067 0.069-0.16 0.112-0.263 0.112-0 0-0.001 0-0.001 0h0zM2.552 12.168l0.088-0.394 1.422 0.337c0.117 0.226 0.19 0.475 0.213 0.731 0.027 0.271 0.011 0.546-0.049 0.811-0.074 0.384-0.24 0.72-0.473 0.998l0.003-0.003c-0.219 0.26-0.504 0.457-0.829 0.568l-0.013 0.004c-0.176 0.059-0.378 0.093-0.588 0.093-0.158 0-0.312-0.019-0.459-0.055l0.013 0.003c-0.359-0.084-0.669-0.26-0.913-0.503l0 0c-0.246-0.239-0.428-0.543-0.517-0.884l-0.003-0.013c-0.047-0.171-0.074-0.368-0.074-0.571s0.027-0.4 0.077-0.587l-0.004 0.016c0.059-0.28 0.165-0.547 0.312-0.789 0.14-0.22 0.327-0.402 0.547-0.531l0.197 0.314c-0.189 0.121-0.35 0.282-0.474 0.473-0.119 0.181-0.206 0.395-0.246 0.625l-0.001 0.010c-0.030 0.125-0.047 0.269-0.047 0.416 0 0.171 0.023 0.337 0.066 0.494l-0.003-0.013c0.074 0.278 0.219 0.529 0.421 0.726 0.207 0.21 0.467 0.354 0.749 0.417 0.274 0.080 0.563 0.080 0.837 0 0.262-0.090 0.497-0.25 0.683-0.463 0.191-0.23 0.323-0.507 0.383-0.806 0.034-0.132 0.054-0.284 0.054-0.441 0-0.234-0.044-0.457-0.124-0.663l0.004 0.012-1.253-0.331zM5.647 8.573l-1.274 1.777 0.547 1.023-0.251 0.354-2.024-3.857 0.235-0.337 4.119 0.926-0.257 0.354-1.094-0.24zM5.286 8.482l-2.188-0.514 1.094 2.052 1.094-1.537zM5.286 4.887l0.328-0.257 2.084 2.914 1.718-1.343 0.207 0.291-2.040 1.594-2.297-3.2zM8.732 2.504l0.366-0.171 1.444 3.303 1.953-0.926 0.142 0.331-2.318 1.103-1.586-3.64zM15.94 3.819l0.082 0.36-2.636 0.646-0.875-3.897 2.56-0.623 0.076 0.354-2.188 0.531 0.312 1.383 1.925-0.474 0.082 0.354-1.93 0.469 0.328 1.446 2.264-0.549zM19.697 3.961l-0.914-1.257c-0.102 0.006-0.204 0.006-0.306 0l-1.029 0.034 0.038 1.269h-0.405l-0.126-4 1.455-0.006c0.411-0.040 0.823 0.076 1.16 0.326 0.142 0.119 0.256 0.271 0.334 0.443s0.117 0.36 0.114 0.551c0.001 0.024 0.002 0.051 0.002 0.079 0 0.267-0.076 0.516-0.208 0.726l0.003-0.006c-0.154 0.223-0.371 0.392-0.625 0.483l-0.009 0.003 0.957 1.337-0.443 0.017zM19.314 2.081c0.098-0.094 0.174-0.21 0.223-0.341s0.067-0.269 0.056-0.408c0-0.006 0-0.013 0-0.020 0-0.139-0.030-0.271-0.083-0.39l0.002 0.006c-0.058-0.129-0.14-0.239-0.241-0.326l-0.001-0.001c-0.207-0.149-0.467-0.239-0.747-0.239-0.039 0-0.078 0.002-0.116 0.005l0.005-0-1.040 0.040 0.066 2 1.017-0.034c0.014 0.001 0.030 0.001 0.046 0.001 0.31 0 0.594-0.11 0.815-0.294l-0.002 0.002zM22.59 2.899l-0.197 1.366-0.399-0.063 0.202-1.343-1.131-2.857 0.426 0.069 0.967 2.434 1.64-2.017 0.383 0.086-1.892 2.326zM27.999 2.659l0.476 0.646-0.208 0.171-0.475-0.663-0.301 0.749-0.23-0.103 0.306-0.749-0.787 0.109v-0.274l0.777-0.091-0.482-0.646 0.213-0.171 0.421 0.651 0.295-0.754 0.235 0.103-0.279 0.766 0.788-0.114v0.28l-0.75 0.091zM29.826 7.264c-0.124-0.198-0.208-0.432-0.234-0.684l-0.001-0.007 0.322-0.149c0.025 0.226 0.095 0.445 0.208 0.64 0.122 0.219 0.281 0.413 0.47 0.571 0.194 0.195 0.443 0.321 0.711 0.36 0.097 0.009 0.194-0.006 0.283-0.045s0.169-0.1 0.231-0.178c0.079-0.093 0.127-0.214 0.127-0.347 0-0.015-0.001-0.029-0.002-0.044l0 0.002c-0.020-0.147-0.066-0.281-0.134-0.4l0.003 0.005c-0.103-0.175-0.214-0.345-0.334-0.509-0.134-0.181-0.264-0.386-0.38-0.601l-0.014-0.028c-0.086-0.155-0.138-0.34-0.142-0.536l-0-0.001c0-0.211 0.076-0.416 0.214-0.571 0.119-0.151 0.276-0.263 0.454-0.326 0.091-0.028 0.195-0.045 0.303-0.045s0.213 0.016 0.311 0.047l-0.007-0.002c0.255 0.087 0.491 0.227 0.695 0.411 0.168 0.146 0.317 0.315 0.443 0.503 0.116 0.174 0.203 0.367 0.257 0.571l-0.312 0.171c-0.059-0.204-0.141-0.383-0.245-0.545l0.005 0.008c-0.107-0.15-0.227-0.279-0.363-0.392l-0.003-0.003c-0.183-0.187-0.427-0.313-0.7-0.348l-0.006-0.001c-0.015-0.001-0.032-0.002-0.050-0.002-0.086 0-0.167 0.019-0.239 0.053l0.003-0.001c-0.092 0.043-0.169 0.106-0.227 0.184l-0.001 0.002c-0.080 0.090-0.128 0.209-0.128 0.339 0 0.017 0.001 0.035 0.003 0.052l-0-0.002c0.013 0.144 0.058 0.283 0.131 0.406 0.077 0.131 0.186 0.303 0.334 0.509 0.146 0.194 0.278 0.401 0.394 0.617 0.090 0.163 0.141 0.349 0.147 0.537 0 0.211-0.076 0.416-0.214 0.571-0.12 0.153-0.279 0.266-0.459 0.326-0.198 0.063-0.409 0.063-0.607 0-0.271-0.094-0.504-0.234-0.702-0.413l0.002 0.002c-0.218-0.2-0.401-0.434-0.54-0.695l-0.007-0.014zM35.328 8.099l-0.771-1.143 0.285-0.211 1.777 2.652-0.284 0.211-0.771-1.143-2.854 2.086-0.23-0.349 2.849-2.103zM34.102 12.796c0.097-0.345 0.287-0.655 0.547-0.891 0.243-0.229 0.547-0.395 0.884-0.472l0.013-0.002c0.133-0.033 0.286-0.052 0.443-0.052 0.209 0 0.41 0.034 0.598 0.096l-0.013-0.004c0.322 0.111 0.61 0.309 0.837 0.571 0.229 0.275 0.392 0.611 0.463 0.981l0.002 0.014c0.043 0.166 0.068 0.356 0.068 0.551s-0.025 0.386-0.071 0.567l0.003-0.016c-0.208 0.69-0.761 1.215-1.453 1.38l-0.014 0.003c-0.13 0.031-0.28 0.049-0.433 0.049-0.214 0-0.42-0.035-0.613-0.099l0.014 0.004c-0.337-0.113-0.62-0.311-0.834-0.568l-0.002-0.003c-0.228-0.273-0.391-0.608-0.463-0.975l-0.002-0.014c-0.036-0.152-0.056-0.326-0.056-0.506 0-0.219 0.031-0.43 0.088-0.631l-0.004 0.016zM34.819 14.613c0.183 0.217 0.419 0.377 0.683 0.463 0.273 0.083 0.56 0.093 0.838 0.029 0.292-0.069 0.544-0.207 0.75-0.395l-0.001 0.001c0.202-0.194 0.35-0.44 0.431-0.714 0.040-0.147 0.063-0.315 0.063-0.489 0-0.141-0.015-0.278-0.044-0.41l0.002 0.013c-0.065-0.306-0.197-0.573-0.38-0.798l0.003 0.003c-0.184-0.212-0.423-0.372-0.694-0.46l-0.011-0.003c-0.126-0.036-0.271-0.057-0.421-0.057s-0.295 0.021-0.432 0.060l0.011-0.003c-0.292 0.061-0.545 0.2-0.744 0.395l0-0c-0.2 0.193-0.35 0.436-0.429 0.709l-0.003 0.011c-0.035 0.133-0.056 0.286-0.056 0.443s0.020 0.31 0.058 0.455l-0.003-0.012c0.060 0.283 0.19 0.546 0.377 0.76zM33.687 19.431l1.416-0.571c0-0.103 0.033-0.206 0.061-0.314l0.268-1.034-1.16-0.314 0.104-0.406 3.697 1.034-0.371 1.446c-0.086 0.431-0.313 0.798-0.631 1.060l-0.003 0.003c-0.15 0.109-0.322 0.179-0.502 0.207s-0.364 0.011-0.537-0.047c-0.275-0.065-0.506-0.219-0.669-0.429l-0.002-0.003c-0.164-0.212-0.264-0.481-0.265-0.774v-0l-1.509 0.571 0.104-0.429zM35.519 19.591c0.064 0.121 0.151 0.228 0.255 0.314s0.225 0.147 0.353 0.183c0.076 0.022 0.164 0.035 0.255 0.035 0.189 0 0.366-0.056 0.513-0.152l-0.004 0.002c0.241-0.203 0.406-0.488 0.465-0.806l0.263-1.029-1.854-0.52-0.262 1.029c-0.045 0.134-0.072 0.288-0.072 0.448 0 0.178 0.032 0.348 0.091 0.505l-0.003-0.010zM31.723 23.111l-0.279-0.223 1.64-2.257 3.052 2.417-1.586 2.189-0.279-0.223 1.34-1.846-1.094-0.863-1.198 1.652-0.273-0.217 1.225-1.652-1.132-0.897-1.417 1.92zM30.443 27.666l-0.782 0.046v-0.274l0.782-0.006-0.421-0.68 0.214-0.143 0.415 0.686 0.339-0.766 0.235 0.131-0.371 0.72 0.782-0.046v0.28h-0.793l0.421 0.68-0.213 0.143-0.416-0.686-0.361 0.743-0.23-0.137 0.399-0.691zM23.334 27.208l0.662 0.383c0.111-0.223 0.266-0.418 0.454-0.574s0.406-0.268 0.64-0.329c0.217-0.071 0.446-0.096 0.672-0.074 0.197 0.015 0.386 0.087 0.547 0.206 0.146 0.114 0.253 0.274 0.306 0.457 0.066 0.226 0.054 0.469-0.033 0.686-0.137 0.295-0.322 0.564-0.547 0.794 0.18 0.101 0.347 0.226 0.497 0.371 0.103 0.111 0.181 0.246 0.225 0.394 0.014 0.056 0.022 0.12 0.022 0.185 0 0.183-0.062 0.351-0.166 0.485l0.001-0.002c-0.142 0.214-0.355 0.371-0.605 0.438l-0.007 0.002c-0.1 0.041-0.217 0.065-0.339 0.065s-0.239-0.024-0.345-0.067l0.006 0.002c-0.1-0.046-0.184-0.112-0.25-0.193l-0.001-0.001c-0.066-0.081-0.116-0.179-0.142-0.287l-0.001-0.005c-0.057-0.189-0.043-0.393 0.039-0.571 0.132-0.27 0.294-0.502 0.487-0.704l-0.001 0.001-1.318-0.766c-0.050 0.269-0.061 0.545-0.033 0.817h-0.333c-0.004-0.057-0.006-0.124-0.006-0.191 0-0.286 0.042-0.563 0.121-0.823l-0.005 0.020-0.689-0.4 0.142-0.32zM24.285 27.78l1.449 0.84c0.19-0.19 0.347-0.411 0.465-0.657 0.060-0.166 0.060-0.349 0-0.514-0.026-0.103-0.074-0.192-0.14-0.266l0.001 0.001c-0.065-0.073-0.147-0.129-0.239-0.162l-0.004-0.001c-0.104-0.038-0.225-0.060-0.35-0.060s-0.246 0.022-0.357 0.062l0.007-0.002c-0.186 0.051-0.358 0.144-0.506 0.273-0.146 0.128-0.263 0.285-0.344 0.462l-0.003 0.009 0.022 0.017zM26.342 30.066c0.043-0.075 0.069-0.165 0.069-0.261 0-0.058-0.009-0.113-0.026-0.166l0.001 0.004c-0.035-0.116-0.095-0.216-0.175-0.297l0 0c-0.139-0.123-0.291-0.229-0.454-0.314-0.166 0.171-0.311 0.363-0.432 0.571-0.041 0.078-0.064 0.171-0.064 0.269 0 0.055 0.007 0.108 0.021 0.158l-0.001-0.004c0.017 0.065 0.048 0.126 0.089 0.178 0.041 0.051 0.091 0.093 0.149 0.123l0.003 0.001c0.139 0.055 0.293 0.055 0.432 0 0.154-0.045 0.281-0.14 0.365-0.266l0.002-0.002 0.022 0.006zM16.667 31.614l0.077-4h0.389l-0.061 3.2 1.553-2.663h0.191l1.455 2.709 0.054-3.183h0.389l-0.071 4h-0.334l-1.608-2.989-1.701 2.932-0.334-0.006zM14.764 27.431c0.25 0.249 0.429 0.566 0.517 0.915s0.081 0.717-0.019 1.063c-0.094 0.365-0.275 0.68-0.52 0.932l0-0c-0.233 0.241-0.532 0.417-0.868 0.5l-0.012 0.003c-0.14 0.035-0.301 0.054-0.467 0.054-0.212 0-0.416-0.032-0.608-0.093l0.014 0.004c-0.361-0.095-0.671-0.276-0.919-0.52l0 0c-0.241-0.242-0.419-0.548-0.506-0.889l-0.003-0.013c-0.038-0.152-0.059-0.327-0.059-0.506 0-0.205 0.028-0.403 0.080-0.592l-0.004 0.015c0.1-0.364 0.284-0.678 0.53-0.93l-0 0c0.23-0.241 0.522-0.42 0.851-0.511l0.013-0.003c0.14-0.034 0.3-0.054 0.464-0.054 0.211 0 0.414 0.032 0.605 0.092l-0.014-0.004c0.364 0.099 0.676 0.286 0.924 0.537l0 0zM12.899 27.231c-0.28 0.070-0.52 0.215-0.705 0.411l-0.001 0.001c-0.197 0.206-0.342 0.463-0.413 0.749l-0.002 0.012c-0.076 0.286-0.076 0.589 0 0.874 0.065 0.278 0.203 0.531 0.399 0.731 0.206 0.21 0.46 0.362 0.738 0.44 0.278 0.074 0.569 0.074 0.847 0 0.267-0.069 0.513-0.211 0.711-0.411 0.2-0.21 0.344-0.473 0.415-0.76 0.036-0.132 0.057-0.284 0.057-0.44s-0.021-0.308-0.060-0.452l0.003 0.012c-0.073-0.286-0.214-0.534-0.405-0.732l0.001 0.001c-0.199-0.203-0.45-0.355-0.732-0.432l-0.011-0.003c-0.126-0.038-0.271-0.060-0.421-0.060s-0.295 0.022-0.432 0.062l0.011-0.003zM8.759 24.574l0.147 1.572c0.094 0.042 0.185 0.090 0.274 0.143l0.891 0.537 0.602-1.109 0.355 0.211-1.914 3.446-1.247-0.749c-0.372-0.201-0.659-0.518-0.816-0.902l-0.004-0.012c-0.042-0.123-0.066-0.265-0.066-0.412 0-0.249 0.069-0.481 0.19-0.68l-0.003 0.006c0.127-0.25 0.329-0.451 0.574-0.571 0.249-0.108 0.526-0.13 0.787-0.063l-0.158-1.68 0.389 0.263zM8.136 26.38c-0.136 0.036-0.255 0.097-0.357 0.179l0.002-0.002c-0.106 0.084-0.194 0.189-0.26 0.309-0.082 0.148-0.131 0.325-0.131 0.513 0 0.102 0.014 0.201 0.041 0.295l-0.002-0.008c0.129 0.296 0.351 0.536 0.629 0.68l0.88 0.531 0.958-1.714-0.881-0.531c-0.221-0.176-0.504-0.282-0.812-0.282-0.024 0-0.048 0.001-0.071 0.002l0.003-0v0.029zM5.521 21.894l0.246-0.257 1.887 2.029-2.734 2.789-1.821-1.966 0.251-0.257 1.548 1.663 0.935-0.989-1.356-1.474 0.262-0.263 1.383 1.486 1.017-1.034-1.618-1.726zM1.457 19.648l0.131-0.789 0.257 0.040-0.147 0.811 0.727-0.28 0.087 0.251-0.738 0.263 0.607 0.537-0.175 0.206-0.585-0.571-0.137 0.811-0.262-0.051 0.153-0.811-0.733 0.274-0.082-0.223 0.733-0.269-0.608-0.531 0.181-0.206 0.591 0.537z"></path>
</symbol>
<symbol id="icon-logo-mobile" viewBox="0 0 39 32">
<path fill="#fff" style="fill: var(--color1, #fff)" d="M22.371 9.642l-0.749-0.571c-0.097-0.079-0.223-0.127-0.36-0.127-0.177 0-0.335 0.080-0.44 0.206l-0.001 0.001-10.36 11.897 0.16 0.177 2.566-2.366c-0.146-0.060-0.247-0.201-0.247-0.366 0-0.218 0.177-0.394 0.394-0.394 0.002 0 0.005 0 0.007 0h-0c0 0 0 0 0 0 0.174 0 0.321 0.114 0.371 0.272l0.001 0.003 3.383-3.137c0.050-0.040 0.113-0.065 0.183-0.065s0.133 0.024 0.183 0.065l-0.001-0 0.171 0.126c0.046 0.033 0.104 0.053 0.166 0.053 0.086 0 0.164-0.038 0.216-0.099l0-0 4.423-4.96c0.081-0.085 0.132-0.2 0.132-0.328 0-0.159-0.078-0.3-0.199-0.386l-0.001-0.001z"></path>
<path fill="#fff" style="fill: var(--color1, #fff)" d="M27.24 12.991c-2.14 1.539-4.64 2.746-7.335 3.477l-0.162 0.037c-2.401 0.638-5.193 1.072-8.063 1.208l-0.092 0.003c0.055 0.406 0.155 0.805 0.297 1.189 1.554 1.406 13.257-0.994 15.543-3.771 0.486-0.577-0.189-2.143-0.189-2.143zM13.343 18.859c-0.215 0-0.389-0.174-0.389-0.389s0.174-0.389 0.389-0.389c0.215 0 0.389 0.174 0.389 0.389v0c0 0.002 0 0.004 0 0.006 0 0.211-0.171 0.382-0.382 0.382-0.002 0-0.004-0-0.007-0h0zM2.286 12.168l0.091-0.394 1.486 0.337c0.123 0.226 0.198 0.475 0.223 0.731 0.029 0.271 0.011 0.546-0.051 0.811-0.079 0.386-0.252 0.722-0.493 0.997l0.002-0.002c-0.232 0.261-0.529 0.459-0.866 0.568l-0.014 0.004c-0.184 0.059-0.395 0.093-0.615 0.093-0.165 0-0.326-0.019-0.48-0.055l0.014 0.003c-0.373-0.082-0.697-0.259-0.955-0.504l0.001 0.001c-0.256-0.236-0.445-0.54-0.54-0.884l-0.003-0.013c-0.049-0.171-0.077-0.368-0.077-0.571s0.028-0.4 0.081-0.587l-0.004 0.015c0.062-0.28 0.171-0.547 0.326-0.789 0.147-0.22 0.339-0.399 0.563-0.527l0.008-0.004 0.206 0.314c-0.391 0.243-0.669 0.637-0.753 1.099l-0.002 0.010c-0.031 0.125-0.049 0.268-0.049 0.416 0 0.171 0.024 0.337 0.069 0.494l-0.003-0.013c0.077 0.278 0.229 0.529 0.44 0.726 0.217 0.21 0.488 0.354 0.783 0.417 0.286 0.080 0.589 0.080 0.874 0 0.283-0.095 0.524-0.255 0.713-0.462l0.001-0.001c0.2-0.23 0.337-0.507 0.4-0.806 0.036-0.132 0.056-0.284 0.056-0.441 0-0.234-0.046-0.458-0.129-0.662l0.004 0.012-1.309-0.331zM5.52 8.574l-1.331 1.777 0.571 1.023-0.263 0.354-2.114-3.857 0.246-0.337 4.303 0.926-0.269 0.354-1.143-0.24zM5.143 8.482l-2.286-0.514 1.143 2.051 1.143-1.537zM5.143 4.888l0.343-0.257 2.177 2.914 1.794-1.343 0.217 0.291-2.131 1.594-2.4-3.2zM8.743 2.505l0.383-0.171 1.509 3.303 2.040-0.926 0.149 0.331-2.423 1.103-1.657-3.64zM16.274 3.819l0.086 0.36-2.754 0.646-0.914-3.897 2.674-0.623 0.080 0.354-2.286 0.531 0.326 1.383 2.011-0.474 0.086 0.354-2.017 0.469 0.343 1.446 2.366-0.549zM20.2 3.962l-0.954-1.257c-0.107 0.006-0.213 0.006-0.32 0l-1.074 0.034 0.040 1.269h-0.423l-0.131-4 1.52-0.006c0.050-0.005 0.108-0.008 0.166-0.008 0.392 0 0.755 0.125 1.051 0.337l-0.005-0.004c0.287 0.232 0.469 0.585 0.469 0.979 0 0.005-0 0.011-0 0.016v-0.001c0.017 0.282-0.057 0.563-0.211 0.8-0.163 0.224-0.39 0.394-0.653 0.483l-0.009 0.003 1 1.337-0.463 0.017zM19.8 2.082c0.181-0.167 0.295-0.405 0.295-0.67 0-0.028-0.001-0.055-0.004-0.082l0 0.004c0-0.006 0-0.012 0-0.019 0-0.286-0.131-0.542-0.336-0.711l-0.002-0.001c-0.218-0.15-0.488-0.239-0.779-0.239-0.041 0-0.083 0.002-0.123 0.005l0.005-0-1.086 0.040 0.069 2 1.063-0.034c0.015 0.001 0.033 0.001 0.051 0.001 0.321 0 0.616-0.11 0.849-0.295l-0.003 0.002zM23.223 2.899l-0.206 1.366-0.417-0.063 0.211-1.343-1.183-2.857 0.446 0.069 1.011 2.434 1.714-2.017 0.4 0.086-1.977 2.326zM28.874 2.659l0.497 0.646-0.217 0.171-0.497-0.663-0.314 0.749-0.24-0.103 0.32-0.749-0.823 0.109v-0.274l0.811-0.091-0.503-0.646 0.223-0.171 0.44 0.651 0.309-0.754 0.246 0.103-0.291 0.766 0.823-0.114v0.28l-0.783 0.091zM30.783 7.265c-0.129-0.197-0.217-0.431-0.245-0.684l-0.001-0.007 0.337-0.149c0.025 0.226 0.099 0.445 0.217 0.64 0.127 0.219 0.294 0.413 0.491 0.571 0.197 0.189 0.452 0.318 0.736 0.359l0.007 0.001c0.017 0.002 0.037 0.003 0.057 0.003 0.193 0 0.365-0.087 0.479-0.224l0.001-0.001c0.083-0.091 0.133-0.212 0.133-0.345 0-0.015-0.001-0.030-0.002-0.045l0 0.002c-0.020-0.148-0.069-0.281-0.14-0.399l0.003 0.005c-0.121-0.197-0.236-0.363-0.359-0.523l0.010 0.014c-0.141-0.182-0.277-0.388-0.398-0.603l-0.013-0.026c-0.089-0.154-0.144-0.339-0.149-0.536l-0-0.001c0-0.211 0.079-0.416 0.223-0.571 0.123-0.148 0.283-0.261 0.467-0.324l0.007-0.002c0.095-0.029 0.204-0.045 0.317-0.045s0.222 0.016 0.325 0.047l-0.008-0.002c0.28 0.093 0.522 0.234 0.728 0.414l-0.002-0.002c0.176 0.146 0.331 0.315 0.463 0.503 0.121 0.174 0.212 0.367 0.269 0.571l-0.326 0.171c-0.062-0.205-0.148-0.383-0.256-0.544l0.005 0.007c-0.111-0.15-0.238-0.279-0.379-0.391l-0.004-0.003c-0.194-0.188-0.448-0.314-0.731-0.348l-0.006-0.001c-0.015-0.001-0.033-0.002-0.051-0.002-0.197 0-0.372 0.092-0.485 0.235l-0.001 0.001c-0.083 0.088-0.134 0.207-0.134 0.337 0 0.018 0.001 0.036 0.003 0.053l-0-0.002c0.013 0.144 0.060 0.283 0.137 0.406 0.080 0.131 0.194 0.303 0.349 0.509 0.153 0.194 0.29 0.401 0.411 0.617 0.091 0.154 0.148 0.338 0.154 0.535l0 0.002c0 0.211-0.079 0.416-0.223 0.571-0.123 0.15-0.286 0.263-0.473 0.324l-0.007 0.002c-0.095 0.030-0.204 0.047-0.317 0.047s-0.222-0.017-0.325-0.049l0.008 0.002c-0.282-0.093-0.526-0.233-0.734-0.414l0.003 0.002c-0.228-0.199-0.418-0.433-0.565-0.695l-0.007-0.013zM36.531 8.099l-0.806-1.143 0.297-0.211 1.857 2.651-0.297 0.211-0.806-1.143-2.983 2.086-0.24-0.349 2.977-2.103zM35.251 12.796c0.107-0.357 0.306-0.659 0.569-0.89l0.002-0.002c0.256-0.23 0.573-0.396 0.924-0.472l0.013-0.002c0.139-0.033 0.299-0.052 0.463-0.052 0.218 0 0.429 0.034 0.626 0.096l-0.015-0.004c0.348 0.117 0.642 0.314 0.873 0.57l0.002 0.002c0.238 0.272 0.409 0.609 0.483 0.981l0.002 0.014c0.045 0.165 0.071 0.355 0.071 0.551s-0.026 0.386-0.074 0.567l0.004-0.015c-0.111 0.356-0.309 0.657-0.569 0.89l-0.002 0.002c-0.373 0.335-0.87 0.54-1.414 0.54-0.224 0-0.439-0.035-0.641-0.099l0.015 0.004c-0.35-0.111-0.646-0.309-0.872-0.569l-0.002-0.002c-0.237-0.271-0.407-0.606-0.483-0.975l-0.002-0.014c-0.037-0.152-0.059-0.326-0.059-0.506 0-0.219 0.032-0.43 0.092-0.63l-0.004 0.016zM36 14.614c0.191 0.217 0.438 0.377 0.714 0.463 0.148 0.044 0.318 0.070 0.493 0.070 0.446 0 0.854-0.165 1.166-0.438l-0.002 0.002c0.211-0.194 0.367-0.44 0.451-0.714 0.042-0.147 0.066-0.315 0.066-0.489 0-0.456-0.166-0.872-0.44-1.194l0.002 0.003c-0.195-0.213-0.444-0.374-0.726-0.46l-0.012-0.003c-0.132-0.036-0.284-0.057-0.44-0.057s-0.308 0.021-0.452 0.060l0.012-0.003c-0.303 0.060-0.568 0.199-0.778 0.395l0.001-0.001c-0.208 0.191-0.364 0.434-0.448 0.709l-0.003 0.011c-0.037 0.133-0.058 0.285-0.058 0.443s0.021 0.31 0.061 0.455l-0.003-0.012c0.067 0.296 0.205 0.553 0.395 0.761l-0.001-0.001zM34.817 19.431l1.48-0.571c0-0.103 0.034-0.206 0.063-0.314l0.28-1.034-1.211-0.314 0.109-0.406 3.863 1.034-0.389 1.446c-0.092 0.435-0.33 0.803-0.659 1.060l-0.004 0.003c-0.197 0.138-0.441 0.22-0.704 0.22-0.136 0-0.268-0.022-0.39-0.063l0.009 0.003c-0.561-0.125-0.974-0.617-0.977-1.205v-0l-1.577 0.571 0.109-0.429zM36.731 19.591c0.179 0.32 0.515 0.532 0.901 0.532 0.197 0 0.381-0.055 0.538-0.152l-0.004 0.003c0.246-0.199 0.421-0.478 0.484-0.797l0.001-0.009 0.274-1.029-1.937-0.52-0.274 1.029c-0.047 0.134-0.075 0.288-0.075 0.448 0 0.178 0.034 0.348 0.095 0.504l-0.003-0.009zM32.766 23.111l-0.291-0.223 1.714-2.257 3.189 2.417-1.657 2.189-0.291-0.223 1.4-1.846-1.143-0.863-1.251 1.651-0.286-0.217 1.28-1.651-1.183-0.897-1.48 1.92zM31.429 27.665l-0.817 0.046v-0.274l0.817-0.006-0.44-0.68 0.223-0.143 0.434 0.686 0.354-0.766 0.246 0.131-0.389 0.72 0.817-0.046v0.28h-0.829l0.44 0.68-0.223 0.143-0.434-0.686-0.377 0.743-0.24-0.137 0.417-0.691zM24 27.208l0.691 0.383c0.235-0.446 0.642-0.774 1.131-0.9l0.012-0.003c0.161-0.052 0.346-0.082 0.538-0.082 0.058 0 0.116 0.003 0.173 0.008l-0.007-0.001c0.216 0.017 0.411 0.092 0.575 0.208l-0.003-0.002c0.152 0.114 0.265 0.274 0.32 0.457 0.069 0.226 0.057 0.469-0.034 0.686-0.151 0.307-0.342 0.57-0.571 0.794l-0 0c0.189 0.101 0.363 0.226 0.52 0.371 0.108 0.111 0.188 0.246 0.234 0.394 0.015 0.056 0.023 0.12 0.023 0.187 0 0.183-0.065 0.352-0.173 0.483l0.001-0.001c-0.151 0.216-0.374 0.373-0.632 0.438l-0.008 0.002c-0.229 0.087-0.48 0.087-0.709 0-0.204-0.089-0.356-0.266-0.41-0.481l-0.001-0.005c-0.023-0.070-0.036-0.151-0.036-0.235 0-0.122 0.028-0.238 0.078-0.341l-0.002 0.005c0.138-0.27 0.308-0.502 0.509-0.703v0l-1.377-0.766c-0.053 0.269-0.064 0.545-0.034 0.817h-0.349c-0.004-0.057-0.007-0.124-0.007-0.191 0-0.287 0.044-0.563 0.126-0.823l-0.005 0.019-0.72-0.4 0.149-0.32zM24.994 27.779l1.514 0.84c0.194-0.186 0.357-0.403 0.479-0.644l0.006-0.014c0.063-0.166 0.063-0.349 0-0.514-0.054-0.202-0.203-0.361-0.396-0.427l-0.004-0.001c-0.109-0.038-0.235-0.060-0.366-0.060s-0.257 0.022-0.374 0.063l0.008-0.002c-0.398 0.107-0.717 0.378-0.888 0.735l-0.004 0.008 0.023 0.017zM27.143 30.065c0.045-0.075 0.072-0.165 0.072-0.262 0-0.058-0.009-0.113-0.027-0.165l0.001 0.004c-0.037-0.117-0.1-0.217-0.183-0.297l-0-0c-0.138-0.117-0.294-0.222-0.46-0.308l-0.014-0.006c-0.169 0.168-0.319 0.355-0.444 0.559l-0.007 0.013c-0.042 0.078-0.067 0.17-0.067 0.268 0 0.055 0.008 0.108 0.022 0.158l-0.001-0.004c0.038 0.134 0.129 0.242 0.249 0.302l0.003 0.001c0.146 0.055 0.306 0.055 0.451 0 0.159-0.043 0.292-0.139 0.381-0.266l0.001-0.002 0.023 0.006zM17.034 31.614l0.080-4h0.406l-0.063 3.2 1.623-2.663h0.2l1.52 2.709 0.057-3.183h0.406l-0.074 4h-0.349l-1.68-2.989-1.777 2.931-0.349-0.006zM15.046 27.431c0.373 0.356 0.604 0.856 0.604 1.411 0 0.202-0.031 0.397-0.088 0.58l0.004-0.014c-0.1 0.367-0.289 0.682-0.543 0.931l-0 0c-0.246 0.242-0.558 0.419-0.907 0.5l-0.013 0.003c-0.147 0.035-0.315 0.054-0.488 0.054-0.221 0-0.435-0.032-0.636-0.093l0.016 0.004c-0.375-0.093-0.699-0.275-0.961-0.521l0.001 0.001c-0.251-0.24-0.436-0.546-0.528-0.889l-0.003-0.013c-0.039-0.152-0.061-0.326-0.061-0.505 0-0.59 0.242-1.123 0.633-1.506l0-0c0.242-0.242 0.548-0.421 0.889-0.511l0.014-0.003c0.146-0.034 0.313-0.054 0.485-0.054 0.22 0 0.433 0.032 0.633 0.092l-0.016-0.004c0.378 0.098 0.704 0.285 0.966 0.538l-0.001-0.001zM13.097 27.231c-0.291 0.069-0.541 0.213-0.737 0.411l-0 0c-0.205 0.204-0.356 0.461-0.432 0.748l-0.003 0.012c-0.080 0.286-0.080 0.589 0 0.874 0.067 0.278 0.212 0.531 0.417 0.731 0.209 0.204 0.469 0.357 0.759 0.437l0.012 0.003c0.133 0.035 0.286 0.055 0.443 0.055s0.31-0.020 0.455-0.058l-0.012 0.003c0.28-0.069 0.536-0.211 0.743-0.411 0.203-0.204 0.355-0.461 0.432-0.748l0.003-0.012c0.038-0.132 0.060-0.283 0.060-0.44s-0.022-0.308-0.063-0.452l0.003 0.012c-0.078-0.288-0.225-0.535-0.423-0.731l-0-0c-0.21-0.204-0.472-0.356-0.765-0.432l-0.012-0.003c-0.132-0.038-0.283-0.060-0.44-0.060s-0.308 0.022-0.452 0.063l0.012-0.003zM8.771 24.574l0.154 1.571c0.098 0.042 0.194 0.090 0.286 0.143l0.931 0.537 0.629-1.109 0.371 0.211-2 3.446-1.303-0.749c-0.385-0.196-0.685-0.514-0.853-0.903l-0.005-0.012c-0.044-0.123-0.070-0.265-0.070-0.413 0-0.25 0.073-0.483 0.198-0.678l-0.003 0.005c0.133-0.25 0.343-0.451 0.6-0.571 0.15-0.064 0.324-0.101 0.507-0.101 0.112 0 0.221 0.014 0.325 0.040l-0.009-0.002-0.166-1.68 0.406 0.263zM8.12 26.379c-0.411 0.106-0.719 0.449-0.771 0.871l-0 0.005c-0.005 0.036-0.007 0.078-0.007 0.121 0 0.103 0.015 0.202 0.043 0.296l-0.002-0.007c0.134 0.296 0.366 0.536 0.657 0.68l0.92 0.531 1-1.714-0.92-0.531c-0.233-0.176-0.527-0.282-0.846-0.282-0.026 0-0.052 0.001-0.077 0.002l0.004-0v0.029zM5.389 21.894l0.257-0.257 1.971 2.029-2.857 2.789-1.903-1.966 0.263-0.257 1.617 1.663 0.977-0.989-1.417-1.474 0.274-0.263 1.446 1.486 1.063-1.034-1.691-1.726zM1.143 19.648l0.137-0.789 0.269 0.040-0.154 0.811 0.76-0.28 0.091 0.251-0.771 0.263 0.634 0.537-0.183 0.206-0.611-0.571-0.143 0.811-0.274-0.051 0.16-0.811-0.766 0.274-0.086-0.223 0.766-0.269-0.634-0.531 0.189-0.206 0.617 0.537z"></path>
</symbol>
<symbol id="icon-menu-open" viewBox="0 0 32 32">
<path fill="#fff" style="fill: var(--color1, #fff)" d="M6.401 11.735v-2.134h19.202v2.134h-19.202zM6.401 17.068h19.202v-2.133h-19.202v2.133zM6.401 22.402h19.202v-2.134h-19.202v2.134z"></path>
</symbol>
<symbol id="icon-menu-close" viewBox="0 0 32 32">
<path d="M23.736 10.305l-1.504-1.504-5.964 5.963-5.963-5.963-1.504 1.504 5.963 5.963-5.963 5.964 1.504 1.504 5.963-5.964 5.964 5.964 1.504-1.504-5.964-5.964 5.964-5.963z"></path>
</symbol>
<symbol id="icon-instagram" viewBox="0 0 32 32">
<path fill="#fff" style="fill: var(--color1, #fff)" d="M32.005 16.003c0 0.006 0 0.013 0 0.020 0 4.413-1.792 8.407-4.687 11.295l-0 0c-2.888 2.896-6.883 4.687-11.295 4.687-0.007 0-0.014 0-0.021 0h0.001c-0.006 0-0.013 0-0.020 0-4.413 0-8.407-1.792-11.295-4.687l-0-0c-2.896-2.888-4.687-6.882-4.687-11.295 0-0.007 0-0.014 0-0.021v0.001c0-0.006 0-0.013 0-0.020 0-4.413 1.792-8.407 4.687-11.295l0-0c2.888-2.896 6.882-4.687 11.295-4.687 0.007 0 0.014 0 0.021 0h-0.001c0.006 0 0.013 0 0.020 0 4.413 0 8.407 1.792 11.295 4.687l0 0c2.896 2.888 4.687 6.882 4.687 11.295 0 0.007 0 0.014 0 0.021v-0.001z"></path>
<path fill="#ff6c00" style="fill: var(--color2, #ff6c00)" d="M23.262 13.006c-0.033-0.773-0.159-1.304-0.337-1.765-0.193-0.505-0.479-0.936-0.841-1.29l-0.001-0.001c-0.354-0.36-0.784-0.645-1.263-0.83l-0.024-0.008c-0.463-0.179-0.991-0.304-1.765-0.338-0.778-0.037-1.026-0.046-3.001-0.046s-2.222 0.009-2.998 0.043c-0.773 0.033-1.304 0.159-1.765 0.338-0.505 0.193-0.936 0.479-1.29 0.84l-0.001 0.001c-0.36 0.354-0.645 0.784-0.83 1.263l-0.008 0.024c-0.18 0.463-0.304 0.991-0.338 1.765-0.037 0.778-0.046 1.026-0.046 3.001s0.009 2.222 0.043 2.998c0.034 0.773 0.159 1.304 0.338 1.765 0.194 0.505 0.48 0.935 0.84 1.29l0.001 0c0.364 0.37 0.804 0.656 1.287 0.838 0.463 0.18 0.992 0.305 1.765 0.338 0.776 0.034 1.023 0.043 2.998 0.043s2.222-0.009 2.998-0.043c0.773-0.033 1.304-0.159 1.765-0.337 0.981-0.386 1.743-1.148 2.12-2.104l0.009-0.025c0.179-0.463 0.304-0.992 0.338-1.765 0.034-0.776 0.042-1.023 0.042-2.998s-0.003-2.222-0.036-2.998zM21.953 18.946c-0.032 0.711-0.151 1.094-0.25 1.349-0.251 0.637-0.745 1.131-1.366 1.376l-0.016 0.006c-0.255 0.099-0.642 0.218-1.349 0.25-0.767 0.034-0.997 0.043-2.939 0.043s-2.174-0.009-2.939-0.043c-0.711-0.031-1.094-0.151-1.35-0.25-0.328-0.122-0.607-0.307-0.835-0.542l-0.001-0.001c-0.235-0.229-0.42-0.508-0.538-0.82l-0.005-0.016c-0.099-0.256-0.218-0.642-0.249-1.35-0.034-0.767-0.043-0.998-0.043-2.939s0.009-2.175 0.043-2.939c0.031-0.711 0.151-1.094 0.249-1.35 0.122-0.328 0.308-0.608 0.545-0.835l0.001-0.001c0.229-0.235 0.509-0.42 0.821-0.537l0.016-0.005c0.255-0.099 0.642-0.218 1.349-0.25 0.767-0.033 0.998-0.042 2.939-0.042 1.944 0 2.174 0.008 2.939 0.042 0.711 0.031 1.094 0.151 1.35 0.25 0.315 0.116 0.602 0.301 0.835 0.543 0.241 0.236 0.426 0.52 0.543 0.836 0.099 0.255 0.218 0.642 0.25 1.349 0.034 0.767 0.043 0.997 0.043 2.939s-0.009 2.168-0.043 2.936z"></path>
<path fill="#ff6c00" style="fill: var(--color2, #ff6c00)" d="M16.030 12.267c-0 0-0 0-0.001 0-2.064 0-3.738 1.674-3.738 3.738s1.674 3.738 3.738 3.738c2.064 0 3.738-1.674 3.738-3.738 0-0 0-0 0-0.001v0c-0-2.064-1.673-3.737-3.737-3.737h-0zM16.030 18.428c-1.339-0-2.424-1.086-2.424-2.424s1.085-2.424 2.424-2.424c0 0 0 0 0 0h-0c1.339 0 2.425 1.086 2.425 2.425s-1.086 2.425-2.425 2.425v0zM20.788 12.119c0 0.482-0.391 0.873-0.873 0.873s-0.873-0.391-0.873-0.873v0c0-0.482 0.391-0.873 0.873-0.873s0.873 0.391 0.873 0.873v0z"></path>
</symbol>
<symbol id="icon-twitter" viewBox="0 0 32 32">
<path fill="#fff" style="fill: var(--color1, #fff)" d="M32.005 16.003c0 0.006 0 0.013 0 0.020 0 4.413-1.792 8.407-4.687 11.295l-0 0c-2.888 2.896-6.883 4.687-11.295 4.687-0.007 0-0.014 0-0.021 0h0.001c-0.006 0-0.013 0-0.020 0-4.413 0-8.407-1.792-11.295-4.687l-0-0c-2.896-2.888-4.687-6.882-4.687-11.295 0-0.007 0-0.014 0-0.021v0.001c0-0.006 0-0.013 0-0.020 0-4.413 1.792-8.407 4.687-11.295l0-0c2.888-2.896 6.882-4.687 11.295-4.687 0.007 0 0.014 0 0.021 0h-0.001c0.006 0 0.013 0 0.020 0 4.413 0 8.407 1.792 11.295 4.687l0 0c2.896 2.888 4.687 6.882 4.687 11.295 0 0.007 0 0.014 0 0.021v-0.001z"></path>
<path fill="#303030" style="fill: var(--color3, #303030)" d="M23.277 11.492c-0.5 0.224-1.080 0.39-1.688 0.467l-0.031 0.003c0.618-0.371 1.083-0.945 1.306-1.627l0.006-0.021c-0.544 0.328-1.178 0.579-1.853 0.715l-0.038 0.006c-0.546-0.582-1.319-0.945-2.178-0.945-1.647 0-2.982 1.335-2.982 2.982 0 0.001 0 0.002 0 0.003v-0c0 0.236 0.020 0.464 0.070 0.68-2.48-0.121-4.674-1.309-6.148-3.12-0.256 0.432-0.407 0.952-0.407 1.508v0c0 1.033 0.531 1.949 1.324 2.478-0.496-0.014-0.959-0.148-1.362-0.375l0.015 0.008v0.033c0.001 1.439 1.017 2.64 2.37 2.928l0.020 0.003c-0.227 0.062-0.487 0.098-0.756 0.098-0.009 0-0.018-0-0.028-0h0.001c-0.014 0-0.030 0-0.047 0-0.183 0-0.362-0.019-0.534-0.054l0.017 0.003c0.386 1.181 1.483 2.050 2.787 2.078-1.007 0.793-2.293 1.271-3.691 1.271-0.003 0-0.005 0-0.008 0h0c-0.012 0-0.026 0-0.039 0-0.238 0-0.472-0.015-0.701-0.044l0.027 0.003c1.285 0.839 2.858 1.338 4.548 1.338 0.010 0 0.019-0 0.029-0h-0.002c5.488 0 8.489-4.546 8.489-8.487 0-0.131-0.004-0.259-0.011-0.386 0.59-0.426 1.087-0.939 1.481-1.526l0.014-0.021z"></path>
</symbol>
<symbol id="icon-facebook" viewBox="0 0 32 32">
<path fill="#fff" style="fill: var(--color1, #fff)" d="M32.005 16.003c0 0.006 0 0.013 0 0.020 0 4.413-1.792 8.407-4.687 11.295l-0 0c-2.888 2.896-6.883 4.687-11.295 4.687-0.007 0-0.014 0-0.021 0h0.001c-0.006 0-0.013 0-0.020 0-4.413 0-8.407-1.792-11.295-4.687l-0-0c-2.896-2.888-4.687-6.882-4.687-11.295 0-0.007 0-0.014 0-0.021v0.001c0-0.006 0-0.013 0-0.020 0-4.413 1.792-8.407 4.687-11.295l0-0c2.888-2.896 6.882-4.687 11.295-4.687 0.007 0 0.014 0 0.021 0h-0.001c0.006 0 0.013 0 0.020 0 4.413 0 8.407 1.792 11.295 4.687l0 0c2.896 2.888 4.687 6.882 4.687 11.295 0 0.007 0 0.014 0 0.021v-0.001z"></path>
<path fill="#303030" style="fill: var(--color3, #303030)" d="M18.425 11.144h1.329v-2.313c-0.56-0.065-1.21-0.102-1.868-0.102-0.024 0-0.047 0-0.071 0h0.004c-1.915 0-3.227 1.205-3.227 3.419v2.037h-2.113v2.586h2.113v6.507h2.59v-6.506h2.028l0.322-2.586h-2.349v-1.782c0-0.747 0.201-1.258 1.243-1.258z"></path>
</symbol>
<symbol id="icon-linkedin" viewBox="0 0 32 32">
<path fill="#fff" style="fill: var(--color1, #fff)" d="M32.005 16.003c0 0.006 0 0.013 0 0.020 0 4.413-1.792 8.407-4.687 11.295l-0 0c-2.888 2.896-6.883 4.687-11.295 4.687-0.007 0-0.014 0-0.021 0h0.001c-0.006 0-0.013 0-0.020 0-4.413 0-8.407-1.792-11.295-4.687l-0-0c-2.896-2.888-4.687-6.882-4.687-11.295 0-0.007 0-0.014 0-0.021v0.001c0-0.006 0-0.013 0-0.020 0-4.413 1.792-8.407 4.687-11.295l0-0c2.888-2.896 6.882-4.687 11.295-4.687 0.007 0 0.014 0 0.021 0h-0.001c0.006 0 0.013 0 0.020 0 4.413 0 8.407 1.792 11.295 4.687l0 0c2.896 2.888 4.687 6.882 4.687 11.295 0 0.007 0 0.014 0 0.021v-0.001z"></path>
<path fill="#303030" style="fill: var(--color3, #303030)" d="M23.273 23.277h0.004v-5.336c0-2.61-0.562-4.62-3.614-4.62-1.466 0-2.451 0.804-2.853 1.568h-0.042v-1.324h-2.894v9.712h3.013v-4.809c0-1.266 0.24-2.491 1.808-2.491 1.545 0 1.568 1.445 1.568 2.572v4.729h3.010zM8.969 13.564h3.017v9.712h-3.017v-9.712zM10.476 8.729c-0.965 0-1.747 0.782-1.747 1.747v0c0 0.964 0.783 1.763 1.747 1.763s1.746-0.799 1.746-1.763c-0-0.965-0.782-1.746-1.746-1.747h-0z"></path>
</symbol>
<symbol id="icon-map-pin" viewBox="0 0 32 32">
<path fill="none" stroke="#9da4bd" style="stroke: var(--color4, #9da4bd)" stroke-linejoin="round" stroke-linecap="round" stroke-miterlimit="4" stroke-width="1.3333" d="M26.667 13.819c0 7.635-10.667 14.181-10.667 14.181s-10.667-6.547-10.667-14.181c0-5.423 4.776-9.819 10.667-9.819s10.667 4.396 10.667 9.819v0z"></path>
<path fill="none" stroke="#9da4bd" style="stroke: var(--color4, #9da4bd)" stroke-linejoin="round" stroke-linecap="round" stroke-miterlimit="4" stroke-width="1.3333" d="M16 18.667c2.209 0 4-1.791 4-4s-1.791-4-4-4v0c-2.209 0-4 1.791-4 4s1.791 4 4 4v0z"></path>
</symbol>
<symbol id="icon-phone" viewBox="0 0 32 32">
<path fill="none" stroke="#9da4bd" style="stroke: var(--color4, #9da4bd)" stroke-linejoin="round" stroke-linecap="round" stroke-miterlimit="4" stroke-width="1.3333" d="M26.667 21.337v3.217c0 0.003 0 0.007 0 0.010 0 1.185-0.96 2.145-2.145 2.145-0.068 0-0.135-0.003-0.202-0.009l0.009 0.001c-3.481-0.388-6.626-1.563-9.338-3.343l0.081 0.050c-2.608-1.674-4.762-3.828-6.386-6.353l-0.050-0.083c-1.736-2.644-2.912-5.804-3.285-9.205l-0.008-0.095c-0.006-0.058-0.009-0.125-0.009-0.193 0-1.185 0.96-2.145 2.145-2.145h3.219c0.006-0 0.013-0 0.020-0 1.079 0 1.972 0.797 2.123 1.834l0.001 0.012c0.136 1.029 0.387 2.040 0.751 3.013 0.295 0.784 0.107 1.668-0.483 2.264l-1.363 1.361c1.555 2.7 3.736 4.881 6.353 6.392l0.083 0.044 1.363-1.361c0.388-0.383 0.92-0.619 1.509-0.619 0.271 0 0.53 0.050 0.769 0.142l-0.015-0.005c0.973 0.363 1.984 0.613 3.013 0.751 1.050 0.151 1.847 1.045 1.847 2.125 0 0.019-0 0.037-0.001 0.056l0-0.003z"></path>
</symbol>
<symbol id="icon-mail" viewBox="0 0 32 32">
<path fill="none" stroke="#9da4bd" style="stroke: var(--color4, #9da4bd)" stroke-linejoin="round" stroke-linecap="round" stroke-miterlimit="4" stroke-width="1.3333" d="M6.4 6.667h19.2c1.32 0 2.4 1.049 2.4 2.333v14c0 1.283-1.080 2.333-2.4 2.333h-19.2c-1.32 0-2.4-1.051-2.4-2.333v-14c0-1.284 1.080-2.333 2.4-2.333z"></path>
<path fill="none" stroke="#9da4bd" style="stroke: var(--color4, #9da4bd)" stroke-linejoin="round" stroke-linecap="round" stroke-miterlimit="4" stroke-width="1.3333" d="M26.667 9.333l-10.667 8-10.667-8"></path>
</symbol>
</defs>
</svg>
